<?xml version="1.0" encoding="UTF-8" standalone="no"?><!DOCTYPE svg PUBLIC "-//W3C//DTD SVG 1.1//EN" "http://www.w3.org/Graphics/SVG/1.1/DTD/svg11.dtd"><svg width="100%" height="100%" viewBox="0 0 20 89" version="1.1" xmlns="http://www.w3.org/2000/svg" xmlns:xlink="http://www.w3.org/1999/xlink" xml:space="preserve" xmlns:serif="http://www.serif.com/" style="fill-rule:evenodd;clip-rule:evenodd;stroke-linejoin:round;stroke-miterlimit:2;"><rect x="0" y="0" width="19.5" height="79.5" style="fill:#ebebeb;"/><path d="M19.5,0l-19.5,0l0,79.5l19.5,-0l0,-79.5Zm-1.125,1.125l0,77.25c-0,-0 -17.25,-0 -17.25,-0c0,-0 0,-77.25 0,-77.25l17.25,0Z"/><path d="M19.5,78.938c-0,5.281 -4.365,9.562 -9.75,9.562c-5.385,-0 -9.75,-4.281 -9.75,-9.563l19.5,0.001Z" style="fill:#ebebeb;"/><path d="M19.5,78.938c-0,5.281 -4.365,9.562 -9.75,9.562c-5.385,-0 -9.75,-4.281 -9.75,-9.563l19.5,0.001Zm-1.201,1.124c-0.562,4.133 -4.18,7.313 -8.549,7.313c-4.369,-0 -7.987,-3.18 -8.549,-7.313l17.098,0Z"/><rect x="0.033" y="70.5" width="19.467" height="9" style="fill:#8c8c8c;"/><path d="M0.033,79.5l19.467,-0l0,-9l-19.467,0l0,9Zm1.125,-1.125l0,-6.75c0,0 17.217,0 17.217,0c0,-0 0,6.75 0,6.75l-17.217,0Z"/><rect x="0.033" y="52.5" width="19.467" height="9" style="fill:#68e4ff;"/><path d="M0.033,61.5l19.467,0l0,-9l-19.467,0l0,9Zm1.125,-1.125l0,-6.75c0,0 17.217,0 17.217,0c0,-0 0,6.75 0,6.75l-17.217,0Z"/><rect x="0.033" y="34.5" width="19.467" height="9" style="fill:#68e4ff;"/><path d="M0.033,43.5l19.467,0l0,-9l-19.467,0l0,9Zm1.125,-1.125l0,-6.75c0,0 17.217,0 17.217,0c0,-0 0,6.75 0,6.75l-17.217,0Z"/><rect x="0.033" y="52.5" width="6.717" height="9" style="fill:#8c8c8c;"/><path d="M0.033,61.5l6.717,0l-0,-9l-6.717,0l0,9Zm1.125,-1.125l0,-6.75c0,0 4.467,0 4.467,0c-0,-0 -0,6.75 -0,6.75l-4.467,0Z"/><rect x="6" y="52.5" width="7.533" height="9" style="fill:#8c8c8c;"/><path d="M6,61.5l7.533,0l0,-9l-7.533,0l-0,9Zm1.125,-1.125l-0,-6.75c-0,0 5.283,0 5.283,0c0,-0 0,6.75 0,6.75l-5.283,0Z"/><rect x="12.717" y="52.5" width="6.783" height="9" style="fill:#8c8c8c;"/><path d="M12.717,61.5l6.783,0l-0,-9l-6.783,0l-0,9Zm1.125,-1.125l-0,-6.75c-0,0 4.533,0 4.533,0c-0,-0 -0,6.75 -0,6.75l-4.533,0Z"/><rect x="0" y="16.5" width="19.467" height="9" style="fill:#8c8c8c;"/><path d="M0,25.5l19.467,0l-0,-9l-19.467,0l0,9Zm1.125,-1.125l0,-6.75c-0,0 17.217,0 17.217,0c-0,-0 -0,6.75 -0,6.75l-17.217,0Z"/><rect x="0.033" y="34.5" width="6.717" height="9" style="fill:#8c8c8c;"/><path d="M0.033,43.5l6.717,0l-0,-9l-6.717,0l0,9Zm1.125,-1.125l0,-6.75c0,0 4.467,0 4.467,0c-0,-0 -0,6.75 -0,6.75l-4.467,0Z"/><rect x="6" y="34.5" width="7.533" height="9" style="fill:#8c8c8c;"/><path d="M6,43.5l7.533,0l0,-9l-7.533,0l-0,9Zm1.125,-1.125l-0,-6.75c-0,0 5.283,0 5.283,0c0,-0 0,6.75 0,6.75l-5.283,0Z"/><rect x="12.717" y="34.5" width="6.783" height="9" style="fill:#8c8c8c;"/><path d="M12.717,43.5l6.783,0l-0,-9l-6.783,0l-0,9Zm1.125,-1.125l-0,-6.75c-0,0 4.533,0 4.533,0c-0,-0 -0,6.75 -0,6.75l-4.533,0Z"/></svg>